<svg width="326" height="354" viewBox="0 0 326 354" fill="none" xmlns="http://www.w3.org/2000/svg">
<circle cx="2" cy="2" r="2" fill="#FFCB14"/>
<circle cx="16" cy="2" r="2" fill="#FFCB14"/>
<circle cx="44" cy="2" r="2" fill="#FFCB14"/>
<circle cx="72" cy="2" r="2" fill="#FFCB14"/>
<circle cx="114" cy="2" r="2" fill="#FFCB14"/>
<circle cx="156" cy="2" r="2" fill="#FFCB14"/>
<circle cx="30" cy="2" r="2" fill="#FFCB14"/>
<circle cx="58" cy="2" r="2" fill="#FFCB14"/>
<circle cx="100" cy="2" r="2" fill="#FFCB14"/>
<circle cx="142" cy="2" r="2" fill="#FFCB14"/>
<circle cx="86" cy="2" r="2" fill="#FFCB14"/>
<circle cx="128" cy="2" r="2" fill="#FFCB14"/>
<circle cx="2" cy="30" r="2" fill="#FFCB14"/>
<circle cx="16" cy="30" r="2" fill="#FFCB14"/>
<circle cx="44" cy="30" r="2" fill="#FFCB14"/>
<circle cx="72" cy="30" r="2" fill="#FFCB14"/>
<circle cx="114" cy="30" r="2" fill="#FFCB14"/>
<circle cx="156" cy="30" r="2" fill="#FFCB14"/>
<circle cx="30" cy="30" r="2" fill="#FFCB14"/>
<circle cx="58" cy="30" r="2" fill="#FFCB14"/>
<circle cx="100" cy="30" r="2" fill="#FFCB14"/>
<circle cx="142" cy="30" r="2" fill="#FFCB14"/>
<circle cx="86" cy="30" r="2" fill="#FFCB14"/>
<circle cx="128" cy="30" r="2" fill="#FFCB14"/>
<circle cx="2" cy="114" r="2" fill="#FFCB14"/>
<circle cx="16" cy="114" r="2" fill="#FFCB14"/>
<circle cx="44" cy="114" r="2" fill="#FFCB14"/>
<circle cx="72" cy="114" r="2" fill="#FFCB14"/>
<circle cx="114" cy="114" r="2" fill="#FFCB14"/>
<circle cx="156" cy="114" r="2" fill="#FFCB14"/>
<circle cx="30" cy="114" r="2" fill="#FFCB14"/>
<circle cx="58" cy="114" r="2" fill="#FFCB14"/>
<circle cx="100" cy="114" r="2" fill="#FFCB14"/>
<circle cx="142" cy="114" r="2" fill="#FFCB14"/>
<circle cx="86" cy="114" r="2" fill="#FFCB14"/>
<circle cx="128" cy="114" r="2" fill="#FFCB14"/>
<circle cx="2" cy="16" r="2" fill="#FFCB14"/>
<circle cx="16" cy="16" r="2" fill="#FFCB14"/>
<circle cx="44" cy="16" r="2" fill="#FFCB14"/>
<circle cx="72" cy="16" r="2" fill="#FFCB14"/>
<circle cx="114" cy="16" r="2" fill="#FFCB14"/>
<circle cx="156" cy="16" r="2" fill="#FFCB14"/>
<circle cx="30" cy="16" r="2" fill="#FFCB14"/>
<circle cx="58" cy="16" r="2" fill="#FFCB14"/>
<circle cx="100" cy="16" r="2" fill="#FFCB14"/>
<circle cx="142" cy="16" r="2" fill="#FFCB14"/>
<circle cx="86" cy="16" r="2" fill="#FFCB14"/>
<circle cx="128" cy="16" r="2" fill="#FFCB14"/>
<circle cx="2" cy="100" r="2" fill="#FFCB14"/>
<circle cx="16" cy="100" r="2" fill="#FFCB14"/>
<circle cx="44" cy="100" r="2" fill="#FFCB14"/>
<circle cx="72" cy="100" r="2" fill="#FFCB14"/>
<circle cx="114" cy="100" r="2" fill="#FFCB14"/>
<circle cx="156" cy="100" r="2" fill="#FFCB14"/>
<circle cx="30" cy="100" r="2" fill="#FFCB14"/>
<circle cx="58" cy="100" r="2" fill="#FFCB14"/>
<circle cx="100" cy="100" r="2" fill="#FFCB14"/>
<circle cx="142" cy="100" r="2" fill="#FFCB14"/>
<circle cx="86" cy="100" r="2" fill="#FFCB14"/>
<circle cx="128" cy="100" r="2" fill="#FFCB14"/>
<circle cx="2" cy="44" r="2" fill="#FFCB14"/>
<circle cx="16" cy="44" r="2" fill="#FFCB14"/>
<circle cx="44" cy="44" r="2" fill="#FFCB14"/>
<circle cx="72" cy="44" r="2" fill="#FFCB14"/>
<circle cx="114" cy="44" r="2" fill="#FFCB14"/>
<circle cx="156" cy="44" r="2" fill="#FFCB14"/>
<circle cx="30" cy="44" r="2" fill="#FFCB14"/>
<circle cx="58" cy="44" r="2" fill="#FFCB14"/>
<circle cx="100" cy="44" r="2" fill="#FFCB14"/>
<circle cx="142" cy="44" r="2" fill="#FFCB14"/>
<circle cx="86" cy="44" r="2" fill="#FFCB14"/>
<circle cx="128" cy="44" r="2" fill="#FFCB14"/>
<circle cx="2" cy="128" r="2" fill="#FFCB14"/>
<circle cx="16" cy="128" r="2" fill="#FFCB14"/>
<circle cx="44" cy="128" r="2" fill="#FFCB14"/>
<circle cx="72" cy="128" r="2" fill="#FFCB14"/>
<circle cx="114" cy="128" r="2" fill="#FFCB14"/>
<circle cx="156" cy="128" r="2" fill="#FFCB14"/>
<circle cx="30" cy="128" r="2" fill="#FFCB14"/>
<circle cx="58" cy="128" r="2" fill="#FFCB14"/>
<circle cx="100" cy="128" r="2" fill="#FFCB14"/>
<circle cx="142" cy="128" r="2" fill="#FFCB14"/>
<circle cx="86" cy="128" r="2" fill="#FFCB14"/>
<circle cx="128" cy="128" r="2" fill="#FFCB14"/>
<circle cx="2" cy="58" r="2" fill="#FFCB14"/>
<circle cx="16" cy="58" r="2" fill="#FFCB14"/>
<circle cx="44" cy="58" r="2" fill="#FFCB14"/>
<circle cx="72" cy="58" r="2" fill="#FFCB14"/>
<circle cx="114" cy="58" r="2" fill="#FFCB14"/>
<circle cx="156" cy="58" r="2" fill="#FFCB14"/>
<circle cx="30" cy="58" r="2" fill="#FFCB14"/>
<circle cx="58" cy="58" r="2" fill="#FFCB14"/>
<circle cx="100" cy="58" r="2" fill="#FFCB14"/>
<circle cx="142" cy="58" r="2" fill="#FFCB14"/>
<circle cx="86" cy="58" r="2" fill="#FFCB14"/>
<circle cx="128" cy="58" r="2" fill="#FFCB14"/>
<circle cx="2" cy="142" r="2" fill="#FFCB14"/>
<circle cx="16" cy="142" r="2" fill="#FFCB14"/>
<circle cx="44" cy="142" r="2" fill="#FFCB14"/>
<circle cx="72" cy="142" r="2" fill="#FFCB14"/>
<circle cx="114" cy="142" r="2" fill="#FFCB14"/>
<circle cx="156" cy="142" r="2" fill="#FFCB14"/>
<circle cx="30" cy="142" r="2" fill="#FFCB14"/>
<circle cx="58" cy="142" r="2" fill="#FFCB14"/>
<circle cx="100" cy="142" r="2" fill="#FFCB14"/>
<circle cx="142" cy="142" r="2" fill="#FFCB14"/>
<circle cx="86" cy="142" r="2" fill="#FFCB14"/>
<circle cx="128" cy="142" r="2" fill="#FFCB14"/>
<circle cx="2" cy="72" r="2" fill="#FFCB14"/>
<circle cx="16" cy="72" r="2" fill="#FFCB14"/>
<circle cx="44" cy="72" r="2" fill="#FFCB14"/>
<circle cx="72" cy="72" r="2" fill="#FFCB14"/>
<circle cx="114" cy="72" r="2" fill="#FFCB14"/>
<circle cx="156" cy="72" r="2" fill="#FFCB14"/>
<circle cx="30" cy="72" r="2" fill="#FFCB14"/>
<circle cx="58" cy="72" r="2" fill="#FFCB14"/>
<circle cx="100" cy="72" r="2" fill="#FFCB14"/>
<circle cx="142" cy="72" r="2" fill="#FFCB14"/>
<circle cx="86" cy="72" r="2" fill="#FFCB14"/>
<circle cx="128" cy="72" r="2" fill="#FFCB14"/>
<circle cx="2" cy="156" r="2" fill="#FFCB14"/>
<circle cx="16" cy="156" r="2" fill="#FFCB14"/>
<circle cx="44" cy="156" r="2" fill="#FFCB14"/>
<circle cx="72" cy="156" r="2" fill="#FFCB14"/>
<circle cx="114" cy="156" r="2" fill="#FFCB14"/>
<circle cx="156" cy="156" r="2" fill="#FFCB14"/>
<circle cx="30" cy="156" r="2" fill="#FFCB14"/>
<circle cx="58" cy="156" r="2" fill="#FFCB14"/>
<circle cx="100" cy="156" r="2" fill="#FFCB14"/>
<circle cx="142" cy="156" r="2" fill="#FFCB14"/>
<circle cx="86" cy="156" r="2" fill="#FFCB14"/>
<circle cx="128" cy="156" r="2" fill="#FFCB14"/>
<circle cx="2" cy="86" r="2" fill="#FFCB14"/>
<circle cx="16" cy="86" r="2" fill="#FFCB14"/>
<circle cx="44" cy="86" r="2" fill="#FFCB14"/>
<circle cx="72" cy="86" r="2" fill="#FFCB14"/>
<circle cx="114" cy="86" r="2" fill="#FFCB14"/>
<circle cx="156" cy="86" r="2" fill="#FFCB14"/>
<circle cx="30" cy="86" r="2" fill="#FFCB14"/>
<circle cx="58" cy="86" r="2" fill="#FFCB14"/>
<circle cx="100" cy="86" r="2" fill="#FFCB14"/>
<circle cx="142" cy="86" r="2" fill="#FFCB14"/>
<circle cx="86" cy="86" r="2" fill="#FFCB14"/>
<circle cx="128" cy="86" r="2" fill="#FFCB14"/>
<circle cx="2" cy="170" r="2" fill="#FFCB14"/>
<circle cx="16" cy="170" r="2" fill="#FFCB14"/>
<circle cx="44" cy="170" r="2" fill="#FFCB14"/>
<circle cx="72" cy="170" r="2" fill="#FFCB14"/>
<circle cx="114" cy="170" r="2" fill="#FFCB14"/>
<circle cx="156" cy="170" r="2" fill="#FFCB14"/>
<circle cx="30" cy="170" r="2" fill="#FFCB14"/>
<circle cx="58" cy="170" r="2" fill="#FFCB14"/>
<circle cx="100" cy="170" r="2" fill="#FFCB14"/>
<circle cx="142" cy="170" r="2" fill="#FFCB14"/>
<circle cx="86" cy="170" r="2" fill="#FFCB14"/>
<circle cx="128" cy="170" r="2" fill="#FFCB14"/>
<circle cx="2" cy="184" r="2" fill="#FFCB14"/>
<circle cx="16" cy="184" r="2" fill="#FFCB14"/>
<circle cx="44" cy="184" r="2" fill="#FFCB14"/>
<circle cx="72" cy="184" r="2" fill="#FFCB14"/>
<circle cx="114" cy="184" r="2" fill="#FFCB14"/>
<circle cx="156" cy="184" r="2" fill="#FFCB14"/>
<circle cx="30" cy="184" r="2" fill="#FFCB14"/>
<circle cx="58" cy="184" r="2" fill="#FFCB14"/>
<circle cx="100" cy="184" r="2" fill="#FFCB14"/>
<circle cx="142" cy="184" r="2" fill="#FFCB14"/>
<circle cx="86" cy="184" r="2" fill="#FFCB14"/>
<circle cx="128" cy="184" r="2" fill="#FFCB14"/>
<circle cx="2" cy="212" r="2" fill="#FFCB14"/>
<circle cx="16" cy="212" r="2" fill="#FFCB14"/>
<circle cx="44" cy="212" r="2" fill="#FFCB14"/>
<circle cx="72" cy="212" r="2" fill="#FFCB14"/>
<circle cx="114" cy="212" r="2" fill="#FFCB14"/>
<circle cx="156" cy="212" r="2" fill="#FFCB14"/>
<circle cx="30" cy="212" r="2" fill="#FFCB14"/>
<circle cx="58" cy="212" r="2" fill="#FFCB14"/>
<circle cx="100" cy="212" r="2" fill="#FFCB14"/>
<circle cx="142" cy="212" r="2" fill="#FFCB14"/>
<circle cx="86" cy="212" r="2" fill="#FFCB14"/>
<circle cx="128" cy="212" r="2" fill="#FFCB14"/>
<circle cx="2" cy="296" r="2" fill="#FFCB14"/>
<circle cx="16" cy="296" r="2" fill="#FFCB14"/>
<circle cx="44" cy="296" r="2" fill="#FFCB14"/>
<circle cx="72" cy="296" r="2" fill="#FFCB14"/>
<circle cx="114" cy="296" r="2" fill="#FFCB14"/>
<circle cx="156" cy="296" r="2" fill="#FFCB14"/>
<circle cx="30" cy="296" r="2" fill="#FFCB14"/>
<circle cx="58" cy="296" r="2" fill="#FFCB14"/>
<circle cx="100" cy="296" r="2" fill="#FFCB14"/>
<circle cx="142" cy="296" r="2" fill="#FFCB14"/>
<circle cx="86" cy="296" r="2" fill="#FFCB14"/>
<circle cx="128" cy="296" r="2" fill="#FFCB14"/>
<circle cx="2" cy="198" r="2" fill="#FFCB14"/>
<circle cx="16" cy="198" r="2" fill="#FFCB14"/>
<circle cx="44" cy="198" r="2" fill="#FFCB14"/>
<circle cx="72" cy="198" r="2" fill="#FFCB14"/>
<circle cx="114" cy="198" r="2" fill="#FFCB14"/>
<circle cx="156" cy="198" r="2" fill="#FFCB14"/>
<circle cx="30" cy="198" r="2" fill="#FFCB14"/>
<circle cx="58" cy="198" r="2" fill="#FFCB14"/>
<circle cx="100" cy="198" r="2" fill="#FFCB14"/>
<circle cx="142" cy="198" r="2" fill="#FFCB14"/>
<circle cx="86" cy="198" r="2" fill="#FFCB14"/>
<circle cx="128" cy="198" r="2" fill="#FFCB14"/>
<circle cx="2" cy="282" r="2" fill="#FFCB14"/>
<circle cx="16" cy="282" r="2" fill="#FFCB14"/>
<circle cx="44" cy="282" r="2" fill="#FFCB14"/>
<circle cx="72" cy="282" r="2" fill="#FFCB14"/>
<circle cx="114" cy="282" r="2" fill="#FFCB14"/>
<circle cx="156" cy="282" r="2" fill="#FFCB14"/>
<circle cx="30" cy="282" r="2" fill="#FFCB14"/>
<circle cx="58" cy="282" r="2" fill="#FFCB14"/>
<circle cx="100" cy="282" r="2" fill="#FFCB14"/>
<circle cx="142" cy="282" r="2" fill="#FFCB14"/>
<circle cx="86" cy="282" r="2" fill="#FFCB14"/>
<circle cx="128" cy="282" r="2" fill="#FFCB14"/>
<circle cx="2" cy="226" r="2" fill="#FFCB14"/>
<circle cx="16" cy="226" r="2" fill="#FFCB14"/>
<circle cx="44" cy="226" r="2" fill="#FFCB14"/>
<circle cx="72" cy="226" r="2" fill="#FFCB14"/>
<circle cx="114" cy="226" r="2" fill="#FFCB14"/>
<circle cx="156" cy="226" r="2" fill="#FFCB14"/>
<circle cx="30" cy="226" r="2" fill="#FFCB14"/>
<circle cx="58" cy="226" r="2" fill="#FFCB14"/>
<circle cx="100" cy="226" r="2" fill="#FFCB14"/>
<circle cx="142" cy="226" r="2" fill="#FFCB14"/>
<circle cx="86" cy="226" r="2" fill="#FFCB14"/>
<circle cx="128" cy="226" r="2" fill="#FFCB14"/>
<circle cx="2" cy="310" r="2" fill="#FFCB14"/>
<circle cx="16" cy="310" r="2" fill="#FFCB14"/>
<circle cx="44" cy="310" r="2" fill="#FFCB14"/>
<circle cx="72" cy="310" r="2" fill="#FFCB14"/>
<circle cx="114" cy="310" r="2" fill="#FFCB14"/>
<circle cx="156" cy="310" r="2" fill="#FFCB14"/>
<circle cx="30" cy="310" r="2" fill="#FFCB14"/>
<circle cx="58" cy="310" r="2" fill="#FFCB14"/>
<circle cx="100" cy="310" r="2" fill="#FFCB14"/>
<circle cx="142" cy="310" r="2" fill="#FFCB14"/>
<circle cx="86" cy="310" r="2" fill="#FFCB14"/>
<circle cx="128" cy="310" r="2" fill="#FFCB14"/>
<circle cx="2" cy="240" r="2" fill="#FFCB14"/>
<circle cx="16" cy="240" r="2" fill="#FFCB14"/>
<circle cx="44" cy="240" r="2" fill="#FFCB14"/>
<circle cx="72" cy="240" r="2" fill="#FFCB14"/>
<circle cx="114" cy="240" r="2" fill="#FFCB14"/>
<circle cx="156" cy="240" r="2" fill="#FFCB14"/>
<circle cx="30" cy="240" r="2" fill="#FFCB14"/>
<circle cx="58" cy="240" r="2" fill="#FFCB14"/>
<circle cx="100" cy="240" r="2" fill="#FFCB14"/>
<circle cx="142" cy="240" r="2" fill="#FFCB14"/>
<circle cx="86" cy="240" r="2" fill="#FFCB14"/>
<circle cx="128" cy="240" r="2" fill="#FFCB14"/>
<circle cx="2" cy="324" r="2" fill="#FFCB14"/>
<circle cx="16" cy="324" r="2" fill="#FFCB14"/>
<circle cx="44" cy="324" r="2" fill="#FFCB14"/>
<circle cx="72" cy="324" r="2" fill="#FFCB14"/>
<circle cx="114" cy="324" r="2" fill="#FFCB14"/>
<circle cx="156" cy="324" r="2" fill="#FFCB14"/>
<circle cx="30" cy="324" r="2" fill="#FFCB14"/>
<circle cx="58" cy="324" r="2" fill="#FFCB14"/>
<circle cx="100" cy="324" r="2" fill="#FFCB14"/>
<circle cx="142" cy="324" r="2" fill="#FFCB14"/>
<circle cx="86" cy="324" r="2" fill="#FFCB14"/>
<circle cx="128" cy="324" r="2" fill="#FFCB14"/>
<circle cx="2" cy="254" r="2" fill="#FFCB14"/>
<circle cx="16" cy="254" r="2" fill="#FFCB14"/>
<circle cx="44" cy="254" r="2" fill="#FFCB14"/>
<circle cx="72" cy="254" r="2" fill="#FFCB14"/>
<circle cx="114" cy="254" r="2" fill="#FFCB14"/>
<circle cx="156" cy="254" r="2" fill="#FFCB14"/>
<circle cx="30" cy="254" r="2" fill="#FFCB14"/>
<circle cx="58" cy="254" r="2" fill="#FFCB14"/>
<circle cx="100" cy="254" r="2" fill="#FFCB14"/>
<circle cx="142" cy="254" r="2" fill="#FFCB14"/>
<circle cx="86" cy="254" r="2" fill="#FFCB14"/>
<circle cx="128" cy="254" r="2" fill="#FFCB14"/>
<circle cx="2" cy="338" r="2" fill="#FFCB14"/>
<circle cx="16" cy="338" r="2" fill="#FFCB14"/>
<circle cx="44" cy="338" r="2" fill="#FFCB14"/>
<circle cx="72" cy="338" r="2" fill="#FFCB14"/>
<circle cx="114" cy="338" r="2" fill="#FFCB14"/>
<circle cx="156" cy="338" r="2" fill="#FFCB14"/>
<circle cx="30" cy="338" r="2" fill="#FFCB14"/>
<circle cx="58" cy="338" r="2" fill="#FFCB14"/>
<circle cx="100" cy="338" r="2" fill="#FFCB14"/>
<circle cx="142" cy="338" r="2" fill="#FFCB14"/>
<circle cx="86" cy="338" r="2" fill="#FFCB14"/>
<circle cx="128" cy="338" r="2" fill="#FFCB14"/>
<circle cx="2" cy="268" r="2" fill="#FFCB14"/>
<circle cx="16" cy="268" r="2" fill="#FFCB14"/>
<circle cx="44" cy="268" r="2" fill="#FFCB14"/>
<circle cx="72" cy="268" r="2" fill="#FFCB14"/>
<circle cx="114" cy="268" r="2" fill="#FFCB14"/>
<circle cx="156" cy="268" r="2" fill="#FFCB14"/>
<circle cx="30" cy="268" r="2" fill="#FFCB14"/>
<circle cx="58" cy="268" r="2" fill="#FFCB14"/>
<circle cx="100" cy="268" r="2" fill="#FFCB14"/>
<circle cx="142" cy="268" r="2" fill="#FFCB14"/>
<circle cx="86" cy="268" r="2" fill="#FFCB14"/>
<circle cx="128" cy="268" r="2" fill="#FFCB14"/>
<circle cx="2" cy="352" r="2" fill="#FFCB14"/>
<circle cx="16" cy="352" r="2" fill="#FFCB14"/>
<circle cx="44" cy="352" r="2" fill="#FFCB14"/>
<circle cx="72" cy="352" r="2" fill="#FFCB14"/>
<circle cx="114" cy="352" r="2" fill="#FFCB14"/>
<circle cx="156" cy="352" r="2" fill="#FFCB14"/>
<circle cx="30" cy="352" r="2" fill="#FFCB14"/>
<circle cx="58" cy="352" r="2" fill="#FFCB14"/>
<circle cx="100" cy="352" r="2" fill="#FFCB14"/>
<circle cx="142" cy="352" r="2" fill="#FFCB14"/>
<circle cx="86" cy="352" r="2" fill="#FFCB14"/>
<circle cx="128" cy="352" r="2" fill="#FFCB14"/>
<circle cx="170" cy="2" r="2" fill="#FFCB14"/>
<circle cx="184" cy="2" r="2" fill="#FFCB14"/>
<circle cx="212" cy="2" r="2" fill="#FFCB14"/>
<circle cx="240" cy="2" r="2" fill="#FFCB14"/>
<circle cx="282" cy="2" r="2" fill="#FFCB14"/>
<circle cx="324" cy="2" r="2" fill="#FFCB14"/>
<circle cx="198" cy="2" r="2" fill="#FFCB14"/>
<circle cx="226" cy="2" r="2" fill="#FFCB14"/>
<circle cx="268" cy="2" r="2" fill="#FFCB14"/>
<circle cx="310" cy="2" r="2" fill="#FFCB14"/>
<circle cx="254" cy="2" r="2" fill="#FFCB14"/>
<circle cx="296" cy="2" r="2" fill="#FFCB14"/>
<circle cx="170" cy="30" r="2" fill="#FFCB14"/>
<circle cx="184" cy="30" r="2" fill="#FFCB14"/>
<circle cx="212" cy="30" r="2" fill="#FFCB14"/>
<circle cx="240" cy="30" r="2" fill="#FFCB14"/>
<circle cx="282" cy="30" r="2" fill="#FFCB14"/>
<circle cx="324" cy="30" r="2" fill="#FFCB14"/>
<circle cx="198" cy="30" r="2" fill="#FFCB14"/>
<circle cx="226" cy="30" r="2" fill="#FFCB14"/>
<circle cx="268" cy="30" r="2" fill="#FFCB14"/>
<circle cx="310" cy="30" r="2" fill="#FFCB14"/>
<circle cx="254" cy="30" r="2" fill="#FFCB14"/>
<circle cx="296" cy="30" r="2" fill="#FFCB14"/>
<circle cx="170" cy="114" r="2" fill="#FFCB14"/>
<circle cx="184" cy="114" r="2" fill="#FFCB14"/>
<circle cx="212" cy="114" r="2" fill="#FFCB14"/>
<circle cx="240" cy="114" r="2" fill="#FFCB14"/>
<circle cx="282" cy="114" r="2" fill="#FFCB14"/>
<circle cx="324" cy="114" r="2" fill="#FFCB14"/>
<circle cx="198" cy="114" r="2" fill="#FFCB14"/>
<circle cx="226" cy="114" r="2" fill="#FFCB14"/>
<circle cx="268" cy="114" r="2" fill="#FFCB14"/>
<circle cx="310" cy="114" r="2" fill="#FFCB14"/>
<circle cx="254" cy="114" r="2" fill="#FFCB14"/>
<circle cx="296" cy="114" r="2" fill="#FFCB14"/>
<circle cx="170" cy="16" r="2" fill="#FFCB14"/>
<circle cx="184" cy="16" r="2" fill="#FFCB14"/>
<circle cx="212" cy="16" r="2" fill="#FFCB14"/>
<circle cx="240" cy="16" r="2" fill="#FFCB14"/>
<circle cx="282" cy="16" r="2" fill="#FFCB14"/>
<circle cx="324" cy="16" r="2" fill="#FFCB14"/>
<circle cx="198" cy="16" r="2" fill="#FFCB14"/>
<circle cx="226" cy="16" r="2" fill="#FFCB14"/>
<circle cx="268" cy="16" r="2" fill="#FFCB14"/>
<circle cx="310" cy="16" r="2" fill="#FFCB14"/>
<circle cx="254" cy="16" r="2" fill="#FFCB14"/>
<circle cx="296" cy="16" r="2" fill="#FFCB14"/>
<circle cx="170" cy="100" r="2" fill="#FFCB14"/>
<circle cx="184" cy="100" r="2" fill="#FFCB14"/>
<circle cx="212" cy="100" r="2" fill="#FFCB14"/>
<circle cx="240" cy="100" r="2" fill="#FFCB14"/>
<circle cx="282" cy="100" r="2" fill="#FFCB14"/>
<circle cx="324" cy="100" r="2" fill="#FFCB14"/>
<circle cx="198" cy="100" r="2" fill="#FFCB14"/>
<circle cx="226" cy="100" r="2" fill="#FFCB14"/>
<circle cx="268" cy="100" r="2" fill="#FFCB14"/>
<circle cx="310" cy="100" r="2" fill="#FFCB14"/>
<circle cx="254" cy="100" r="2" fill="#FFCB14"/>
<circle cx="296" cy="100" r="2" fill="#FFCB14"/>
<circle cx="170" cy="44" r="2" fill="#FFCB14"/>
<circle cx="184" cy="44" r="2" fill="#FFCB14"/>
<circle cx="212" cy="44" r="2" fill="#FFCB14"/>
<circle cx="240" cy="44" r="2" fill="#FFCB14"/>
<circle cx="282" cy="44" r="2" fill="#FFCB14"/>
<circle cx="324" cy="44" r="2" fill="#FFCB14"/>
<circle cx="198" cy="44" r="2" fill="#FFCB14"/>
<circle cx="226" cy="44" r="2" fill="#FFCB14"/>
<circle cx="268" cy="44" r="2" fill="#FFCB14"/>
<circle cx="310" cy="44" r="2" fill="#FFCB14"/>
<circle cx="254" cy="44" r="2" fill="#FFCB14"/>
<circle cx="296" cy="44" r="2" fill="#FFCB14"/>
<circle cx="170" cy="128" r="2" fill="#FFCB14"/>
<circle cx="184" cy="128" r="2" fill="#FFCB14"/>
<circle cx="212" cy="128" r="2" fill="#FFCB14"/>
<circle cx="240" cy="128" r="2" fill="#FFCB14"/>
<circle cx="282" cy="128" r="2" fill="#FFCB14"/>
<circle cx="324" cy="128" r="2" fill="#FFCB14"/>
<circle cx="198" cy="128" r="2" fill="#FFCB14"/>
<circle cx="226" cy="128" r="2" fill="#FFCB14"/>
<circle cx="268" cy="128" r="2" fill="#FFCB14"/>
<circle cx="310" cy="128" r="2" fill="#FFCB14"/>
<circle cx="254" cy="128" r="2" fill="#FFCB14"/>
<circle cx="296" cy="128" r="2" fill="#FFCB14"/>
<circle cx="170" cy="58" r="2" fill="#FFCB14"/>
<circle cx="184" cy="58" r="2" fill="#FFCB14"/>
<circle cx="212" cy="58" r="2" fill="#FFCB14"/>
<circle cx="240" cy="58" r="2" fill="#FFCB14"/>
<circle cx="282" cy="58" r="2" fill="#FFCB14"/>
<circle cx="324" cy="58" r="2" fill="#FFCB14"/>
<circle cx="198" cy="58" r="2" fill="#FFCB14"/>
<circle cx="226" cy="58" r="2" fill="#FFCB14"/>
<circle cx="268" cy="58" r="2" fill="#FFCB14"/>
<circle cx="310" cy="58" r="2" fill="#FFCB14"/>
<circle cx="254" cy="58" r="2" fill="#FFCB14"/>
<circle cx="296" cy="58" r="2" fill="#FFCB14"/>
<circle cx="170" cy="142" r="2" fill="#FFCB14"/>
<circle cx="184" cy="142" r="2" fill="#FFCB14"/>
<circle cx="212" cy="142" r="2" fill="#FFCB14"/>
<circle cx="240" cy="142" r="2" fill="#FFCB14"/>
<circle cx="282" cy="142" r="2" fill="#FFCB14"/>
<circle cx="324" cy="142" r="2" fill="#FFCB14"/>
<circle cx="198" cy="142" r="2" fill="#FFCB14"/>
<circle cx="226" cy="142" r="2" fill="#FFCB14"/>
<circle cx="268" cy="142" r="2" fill="#FFCB14"/>
<circle cx="310" cy="142" r="2" fill="#FFCB14"/>
<circle cx="254" cy="142" r="2" fill="#FFCB14"/>
<circle cx="296" cy="142" r="2" fill="#FFCB14"/>
<circle cx="170" cy="72" r="2" fill="#FFCB14"/>
<circle cx="184" cy="72" r="2" fill="#FFCB14"/>
<circle cx="212" cy="72" r="2" fill="#FFCB14"/>
<circle cx="240" cy="72" r="2" fill="#FFCB14"/>
<circle cx="282" cy="72" r="2" fill="#FFCB14"/>
<circle cx="324" cy="72" r="2" fill="#FFCB14"/>
<circle cx="198" cy="72" r="2" fill="#FFCB14"/>
<circle cx="226" cy="72" r="2" fill="#FFCB14"/>
<circle cx="268" cy="72" r="2" fill="#FFCB14"/>
<circle cx="310" cy="72" r="2" fill="#FFCB14"/>
<circle cx="254" cy="72" r="2" fill="#FFCB14"/>
<circle cx="296" cy="72" r="2" fill="#FFCB14"/>
<circle cx="170" cy="156" r="2" fill="#FFCB14"/>
<circle cx="184" cy="156" r="2" fill="#FFCB14"/>
<circle cx="212" cy="156" r="2" fill="#FFCB14"/>
<circle cx="240" cy="156" r="2" fill="#FFCB14"/>
<circle cx="282" cy="156" r="2" fill="#FFCB14"/>
<circle cx="324" cy="156" r="2" fill="#FFCB14"/>
<circle cx="198" cy="156" r="2" fill="#FFCB14"/>
<circle cx="226" cy="156" r="2" fill="#FFCB14"/>
<circle cx="268" cy="156" r="2" fill="#FFCB14"/>
<circle cx="310" cy="156" r="2" fill="#FFCB14"/>
<circle cx="254" cy="156" r="2" fill="#FFCB14"/>
<circle cx="296" cy="156" r="2" fill="#FFCB14"/>
<circle cx="170" cy="86" r="2" fill="#FFCB14"/>
<circle cx="184" cy="86" r="2" fill="#FFCB14"/>
<circle cx="212" cy="86" r="2" fill="#FFCB14"/>
<circle cx="240" cy="86" r="2" fill="#FFCB14"/>
<circle cx="282" cy="86" r="2" fill="#FFCB14"/>
<circle cx="324" cy="86" r="2" fill="#FFCB14"/>
<circle cx="198" cy="86" r="2" fill="#FFCB14"/>
<circle cx="226" cy="86" r="2" fill="#FFCB14"/>
<circle cx="268" cy="86" r="2" fill="#FFCB14"/>
<circle cx="310" cy="86" r="2" fill="#FFCB14"/>
<circle cx="254" cy="86" r="2" fill="#FFCB14"/>
<circle cx="296" cy="86" r="2" fill="#FFCB14"/>
<circle cx="170" cy="170" r="2" fill="#FFCB14"/>
<circle cx="184" cy="170" r="2" fill="#FFCB14"/>
<circle cx="212" cy="170" r="2" fill="#FFCB14"/>
<circle cx="240" cy="170" r="2" fill="#FFCB14"/>
<circle cx="282" cy="170" r="2" fill="#FFCB14"/>
<circle cx="324" cy="170" r="2" fill="#FFCB14"/>
<circle cx="198" cy="170" r="2" fill="#FFCB14"/>
<circle cx="226" cy="170" r="2" fill="#FFCB14"/>
<circle cx="268" cy="170" r="2" fill="#FFCB14"/>
<circle cx="310" cy="170" r="2" fill="#FFCB14"/>
<circle cx="254" cy="170" r="2" fill="#FFCB14"/>
<circle cx="296" cy="170" r="2" fill="#FFCB14"/>
<circle cx="170" cy="184" r="2" fill="#FFCB14"/>
<circle cx="184" cy="184" r="2" fill="#FFCB14"/>
<circle cx="212" cy="184" r="2" fill="#FFCB14"/>
<circle cx="240" cy="184" r="2" fill="#FFCB14"/>
<circle cx="282" cy="184" r="2" fill="#FFCB14"/>
<circle cx="324" cy="184" r="2" fill="#FFCB14"/>
<circle cx="198" cy="184" r="2" fill="#FFCB14"/>
<circle cx="226" cy="184" r="2" fill="#FFCB14"/>
<circle cx="268" cy="184" r="2" fill="#FFCB14"/>
<circle cx="310" cy="184" r="2" fill="#FFCB14"/>
<circle cx="254" cy="184" r="2" fill="#FFCB14"/>
<circle cx="296" cy="184" r="2" fill="#FFCB14"/>
<circle cx="170" cy="212" r="2" fill="#FFCB14"/>
<circle cx="184" cy="212" r="2" fill="#FFCB14"/>
<circle cx="212" cy="212" r="2" fill="#FFCB14"/>
<circle cx="240" cy="212" r="2" fill="#FFCB14"/>
<circle cx="282" cy="212" r="2" fill="#FFCB14"/>
<circle cx="324" cy="212" r="2" fill="#FFCB14"/>
<circle cx="198" cy="212" r="2" fill="#FFCB14"/>
<circle cx="226" cy="212" r="2" fill="#FFCB14"/>
<circle cx="268" cy="212" r="2" fill="#FFCB14"/>
<circle cx="310" cy="212" r="2" fill="#FFCB14"/>
<circle cx="254" cy="212" r="2" fill="#FFCB14"/>
<circle cx="296" cy="212" r="2" fill="#FFCB14"/>
<circle cx="170" cy="296" r="2" fill="#FFCB14"/>
<circle cx="184" cy="296" r="2" fill="#FFCB14"/>
<circle cx="212" cy="296" r="2" fill="#FFCB14"/>
<circle cx="240" cy="296" r="2" fill="#FFCB14"/>
<circle cx="282" cy="296" r="2" fill="#FFCB14"/>
<circle cx="324" cy="296" r="2" fill="#FFCB14"/>
<circle cx="198" cy="296" r="2" fill="#FFCB14"/>
<circle cx="226" cy="296" r="2" fill="#FFCB14"/>
<circle cx="268" cy="296" r="2" fill="#FFCB14"/>
<circle cx="310" cy="296" r="2" fill="#FFCB14"/>
<circle cx="254" cy="296" r="2" fill="#FFCB14"/>
<circle cx="296" cy="296" r="2" fill="#FFCB14"/>
<circle cx="170" cy="198" r="2" fill="#FFCB14"/>
<circle cx="184" cy="198" r="2" fill="#FFCB14"/>
<circle cx="212" cy="198" r="2" fill="#FFCB14"/>
<circle cx="240" cy="198" r="2" fill="#FFCB14"/>
<circle cx="282" cy="198" r="2" fill="#FFCB14"/>
<circle cx="324" cy="198" r="2" fill="#FFCB14"/>
<circle cx="198" cy="198" r="2" fill="#FFCB14"/>
<circle cx="226" cy="198" r="2" fill="#FFCB14"/>
<circle cx="268" cy="198" r="2" fill="#FFCB14"/>
<circle cx="310" cy="198" r="2" fill="#FFCB14"/>
<circle cx="254" cy="198" r="2" fill="#FFCB14"/>
<circle cx="296" cy="198" r="2" fill="#FFCB14"/>
<circle cx="170" cy="282" r="2" fill="#FFCB14"/>
<circle cx="184" cy="282" r="2" fill="#FFCB14"/>
<circle cx="212" cy="282" r="2" fill="#FFCB14"/>
<circle cx="240" cy="282" r="2" fill="#FFCB14"/>
<circle cx="282" cy="282" r="2" fill="#FFCB14"/>
<circle cx="324" cy="282" r="2" fill="#FFCB14"/>
<circle cx="198" cy="282" r="2" fill="#FFCB14"/>
<circle cx="226" cy="282" r="2" fill="#FFCB14"/>
<circle cx="268" cy="282" r="2" fill="#FFCB14"/>
<circle cx="310" cy="282" r="2" fill="#FFCB14"/>
<circle cx="254" cy="282" r="2" fill="#FFCB14"/>
<circle cx="296" cy="282" r="2" fill="#FFCB14"/>
<circle cx="170" cy="226" r="2" fill="#FFCB14"/>
<circle cx="184" cy="226" r="2" fill="#FFCB14"/>
<circle cx="212" cy="226" r="2" fill="#FFCB14"/>
<circle cx="240" cy="226" r="2" fill="#FFCB14"/>
<circle cx="282" cy="226" r="2" fill="#FFCB14"/>
<circle cx="324" cy="226" r="2" fill="#FFCB14"/>
<circle cx="198" cy="226" r="2" fill="#FFCB14"/>
<circle cx="226" cy="226" r="2" fill="#FFCB14"/>
<circle cx="268" cy="226" r="2" fill="#FFCB14"/>
<circle cx="310" cy="226" r="2" fill="#FFCB14"/>
<circle cx="254" cy="226" r="2" fill="#FFCB14"/>
<circle cx="296" cy="226" r="2" fill="#FFCB14"/>
<circle cx="170" cy="310" r="2" fill="#FFCB14"/>
<circle cx="184" cy="310" r="2" fill="#FFCB14"/>
<circle cx="212" cy="310" r="2" fill="#FFCB14"/>
<circle cx="240" cy="310" r="2" fill="#FFCB14"/>
<circle cx="282" cy="310" r="2" fill="#FFCB14"/>
<circle cx="324" cy="310" r="2" fill="#FFCB14"/>
<circle cx="198" cy="310" r="2" fill="#FFCB14"/>
<circle cx="226" cy="310" r="2" fill="#FFCB14"/>
<circle cx="268" cy="310" r="2" fill="#FFCB14"/>
<circle cx="310" cy="310" r="2" fill="#FFCB14"/>
<circle cx="254" cy="310" r="2" fill="#FFCB14"/>
<circle cx="296" cy="310" r="2" fill="#FFCB14"/>
<circle cx="170" cy="240" r="2" fill="#FFCB14"/>
<circle cx="184" cy="240" r="2" fill="#FFCB14"/>
<circle cx="212" cy="240" r="2" fill="#FFCB14"/>
<circle cx="240" cy="240" r="2" fill="#FFCB14"/>
<circle cx="282" cy="240" r="2" fill="#FFCB14"/>
<circle cx="324" cy="240" r="2" fill="#FFCB14"/>
<circle cx="198" cy="240" r="2" fill="#FFCB14"/>
<circle cx="226" cy="240" r="2" fill="#FFCB14"/>
<circle cx="268" cy="240" r="2" fill="#FFCB14"/>
<circle cx="310" cy="240" r="2" fill="#FFCB14"/>
<circle cx="254" cy="240" r="2" fill="#FFCB14"/>
<circle cx="296" cy="240" r="2" fill="#FFCB14"/>
<circle cx="170" cy="324" r="2" fill="#FFCB14"/>
<circle cx="184" cy="324" r="2" fill="#FFCB14"/>
<circle cx="212" cy="324" r="2" fill="#FFCB14"/>
<circle cx="240" cy="324" r="2" fill="#FFCB14"/>
<circle cx="282" cy="324" r="2" fill="#FFCB14"/>
<circle cx="324" cy="324" r="2" fill="#FFCB14"/>
<circle cx="198" cy="324" r="2" fill="#FFCB14"/>
<circle cx="226" cy="324" r="2" fill="#FFCB14"/>
<circle cx="268" cy="324" r="2" fill="#FFCB14"/>
<circle cx="310" cy="324" r="2" fill="#FFCB14"/>
<circle cx="254" cy="324" r="2" fill="#FFCB14"/>
<circle cx="296" cy="324" r="2" fill="#FFCB14"/>
<circle cx="170" cy="254" r="2" fill="#FFCB14"/>
<circle cx="184" cy="254" r="2" fill="#FFCB14"/>
<circle cx="212" cy="254" r="2" fill="#FFCB14"/>
<circle cx="240" cy="254" r="2" fill="#FFCB14"/>
<circle cx="282" cy="254" r="2" fill="#FFCB14"/>
<circle cx="324" cy="254" r="2" fill="#FFCB14"/>
<circle cx="198" cy="254" r="2" fill="#FFCB14"/>
<circle cx="226" cy="254" r="2" fill="#FFCB14"/>
<circle cx="268" cy="254" r="2" fill="#FFCB14"/>
<circle cx="310" cy="254" r="2" fill="#FFCB14"/>
<circle cx="254" cy="254" r="2" fill="#FFCB14"/>
<circle cx="296" cy="254" r="2" fill="#FFCB14"/>
<circle cx="170" cy="338" r="2" fill="#FFCB14"/>
<circle cx="184" cy="338" r="2" fill="#FFCB14"/>
<circle cx="212" cy="338" r="2" fill="#FFCB14"/>
<circle cx="240" cy="338" r="2" fill="#FFCB14"/>
<circle cx="282" cy="338" r="2" fill="#FFCB14"/>
<circle cx="324" cy="338" r="2" fill="#FFCB14"/>
<circle cx="198" cy="338" r="2" fill="#FFCB14"/>
<circle cx="226" cy="338" r="2" fill="#FFCB14"/>
<circle cx="268" cy="338" r="2" fill="#FFCB14"/>
<circle cx="310" cy="338" r="2" fill="#FFCB14"/>
<circle cx="254" cy="338" r="2" fill="#FFCB14"/>
<circle cx="296" cy="338" r="2" fill="#FFCB14"/>
<circle cx="170" cy="268" r="2" fill="#FFCB14"/>
<circle cx="184" cy="268" r="2" fill="#FFCB14"/>
<circle cx="212" cy="268" r="2" fill="#FFCB14"/>
<circle cx="240" cy="268" r="2" fill="#FFCB14"/>
<circle cx="282" cy="268" r="2" fill="#FFCB14"/>
<circle cx="324" cy="268" r="2" fill="#FFCB14"/>
<circle cx="198" cy="268" r="2" fill="#FFCB14"/>
<circle cx="226" cy="268" r="2" fill="#FFCB14"/>
<circle cx="268" cy="268" r="2" fill="#FFCB14"/>
<circle cx="310" cy="268" r="2" fill="#FFCB14"/>
<circle cx="254" cy="268" r="2" fill="#FFCB14"/>
<circle cx="296" cy="268" r="2" fill="#FFCB14"/>
<circle cx="170" cy="352" r="2" fill="#FFCB14"/>
<circle cx="184" cy="352" r="2" fill="#FFCB14"/>
<circle cx="212" cy="352" r="2" fill="#FFCB14"/>
<circle cx="240" cy="352" r="2" fill="#FFCB14"/>
<circle cx="282" cy="352" r="2" fill="#FFCB14"/>
<circle cx="324" cy="352" r="2" fill="#FFCB14"/>
<circle cx="198" cy="352" r="2" fill="#FFCB14"/>
<circle cx="226" cy="352" r="2" fill="#FFCB14"/>
<circle cx="268" cy="352" r="2" fill="#FFCB14"/>
<circle cx="310" cy="352" r="2" fill="#FFCB14"/>
<circle cx="254" cy="352" r="2" fill="#FFCB14"/>
<circle cx="296" cy="352" r="2" fill="#FFCB14"/>
</svg>
